<svg id="visual" viewBox="0 0 1920 1080" width="1920" height="1080" xmlns="http://www.w3.org/2000/svg" xmlns:xlink="http://www.w3.org/1999/xlink" version="1.1"><rect x="0" y="0" width="1920" height="1080" fill="#E3E1D5"></rect><path d="M0 602L21.3 595.3C42.7 588.7 85.3 575.3 128 579.2C170.7 583 213.3 604 256 629C298.7 654 341.3 683 384 681.7C426.7 680.3 469.3 648.7 512 648C554.7 647.3 597.3 677.7 640 679.7C682.7 681.7 725.3 655.3 768 639.7C810.7 624 853.3 619 896 634.5C938.7 650 981.3 686 1024 683.5C1066.7 681 1109.3 640 1152 634.2C1194.7 628.3 1237.3 657.7 1280 658.8C1322.7 660 1365.3 633 1408 616.3C1450.7 599.7 1493.3 593.3 1536 593.8C1578.7 594.3 1621.3 601.7 1664 600.3C1706.7 599 1749.3 589 1792 599.5C1834.7 610 1877.3 641 1898.7 656.5L1920 672L1920 1081L1898.7 1081C1877.3 1081 1834.7 1081 1792 1081C1749.3 1081 1706.7 1081 1664 1081C1621.3 1081 1578.7 1081 1536 1081C1493.3 1081 1450.7 1081 1408 1081C1365.3 1081 1322.7 1081 1280 1081C1237.3 1081 1194.7 1081 1152 1081C1109.3 1081 1066.7 1081 1024 1081C981.3 1081 938.7 1081 896 1081C853.3 1081 810.7 1081 768 1081C725.3 1081 682.7 1081 640 1081C597.3 1081 554.7 1081 512 1081C469.3 1081 426.7 1081 384 1081C341.3 1081 298.7 1081 256 1081C213.3 1081 170.7 1081 128 1081C85.3 1081 42.7 1081 21.3 1081L0 1081Z" fill="#aaba82"></path><path d="M0 712L21.3 703.8C42.7 695.7 85.3 679.3 128 681.2C170.7 683 213.3 703 256 712C298.7 721 341.3 719 384 701C426.7 683 469.3 649 512 632.7C554.7 616.3 597.3 617.7 640 624.7C682.7 631.7 725.3 644.3 768 649C810.7 653.7 853.3 650.3 896 653.5C938.7 656.7 981.3 666.3 1024 673.2C1066.7 680 1109.3 684 1152 692.8C1194.7 701.7 1237.3 715.3 1280 716.8C1322.7 718.3 1365.3 707.7 1408 708C1450.7 708.3 1493.3 719.7 1536 718.5C1578.7 717.3 1621.3 703.7 1664 683.7C1706.7 663.7 1749.3 637.3 1792 645.8C1834.7 654.3 1877.3 697.7 1898.7 719.3L1920 741L1920 1081L1898.7 1081C1877.3 1081 1834.7 1081 1792 1081C1749.3 1081 1706.7 1081 1664 1081C1621.3 1081 1578.7 1081 1536 1081C1493.3 1081 1450.7 1081 1408 1081C1365.3 1081 1322.7 1081 1280 1081C1237.3 1081 1194.7 1081 1152 1081C1109.3 1081 1066.7 1081 1024 1081C981.3 1081 938.7 1081 896 1081C853.3 1081 810.7 1081 768 1081C725.3 1081 682.7 1081 640 1081C597.3 1081 554.7 1081 512 1081C469.3 1081 426.7 1081 384 1081C341.3 1081 298.7 1081 256 1081C213.3 1081 170.7 1081 128 1081C85.3 1081 42.7 1081 21.3 1081L0 1081Z" fill="#b4bf8d"></path><path d="M0 817L21.3 797.5C42.7 778 85.3 739 128 731.2C170.7 723.3 213.3 746.7 256 748C298.7 749.3 341.3 728.7 384 723.7C426.7 718.7 469.3 729.3 512 737C554.7 744.7 597.3 749.3 640 749.5C682.7 749.7 725.3 745.3 768 735.3C810.7 725.3 853.3 709.7 896 716.3C938.7 723 981.3 752 1024 753.8C1066.7 755.7 1109.3 730.3 1152 723.8C1194.7 717.3 1237.3 729.7 1280 727.3C1322.7 725 1365.3 708 1408 712C1450.7 716 1493.3 741 1536 739.2C1578.7 737.3 1621.3 708.7 1664 705.7C1706.7 702.7 1749.3 725.3 1792 741.8C1834.7 758.3 1877.3 768.7 1898.7 773.8L1920 779L1920 1081L1898.7 1081C1877.3 1081 1834.7 1081 1792 1081C1749.3 1081 1706.7 1081 1664 1081C1621.3 1081 1578.7 1081 1536 1081C1493.3 1081 1450.7 1081 1408 1081C1365.3 1081 1322.7 1081 1280 1081C1237.3 1081 1194.7 1081 1152 1081C1109.3 1081 1066.7 1081 1024 1081C981.3 1081 938.7 1081 896 1081C853.3 1081 810.7 1081 768 1081C725.3 1081 682.7 1081 640 1081C597.3 1081 554.7 1081 512 1081C469.3 1081 426.7 1081 384 1081C341.3 1081 298.7 1081 256 1081C213.3 1081 170.7 1081 128 1081C85.3 1081 42.7 1081 21.3 1081L0 1081Z" fill="#bdc498"></path><path d="M0 773L21.3 782.5C42.7 792 85.3 811 128 802.2C170.7 793.3 213.3 756.7 256 743.7C298.7 730.7 341.3 741.3 384 762.5C426.7 783.7 469.3 815.3 512 831C554.7 846.7 597.3 846.3 640 837.3C682.7 828.3 725.3 810.7 768 792.7C810.7 774.7 853.3 756.3 896 754.7C938.7 753 981.3 768 1024 779.5C1066.7 791 1109.3 799 1152 796.8C1194.7 794.7 1237.3 782.3 1280 781.3C1322.7 780.3 1365.3 790.7 1408 790.5C1450.7 790.3 1493.3 779.7 1536 779.7C1578.7 779.7 1621.3 790.3 1664 790C1706.7 789.7 1749.3 778.3 1792 766.3C1834.7 754.3 1877.3 741.7 1898.7 735.3L1920 729L1920 1081L1898.7 1081C1877.3 1081 1834.7 1081 1792 1081C1749.3 1081 1706.7 1081 1664 1081C1621.3 1081 1578.7 1081 1536 1081C1493.3 1081 1450.7 1081 1408 1081C1365.3 1081 1322.7 1081 1280 1081C1237.3 1081 1194.7 1081 1152 1081C1109.3 1081 1066.7 1081 1024 1081C981.3 1081 938.7 1081 896 1081C853.3 1081 810.7 1081 768 1081C725.3 1081 682.7 1081 640 1081C597.3 1081 554.7 1081 512 1081C469.3 1081 426.7 1081 384 1081C341.3 1081 298.7 1081 256 1081C213.3 1081 170.7 1081 128 1081C85.3 1081 42.7 1081 21.3 1081L0 1081Z" fill="#c6c9a4"></path><path d="M0 829L21.3 828.8C42.7 828.7 85.3 828.3 128 839.7C170.7 851 213.3 874 256 884.2C298.7 894.3 341.3 891.7 384 892.2C426.7 892.7 469.3 896.3 512 887.5C554.7 878.7 597.3 857.3 640 847.3C682.7 837.3 725.3 838.7 768 835.7C810.7 832.7 853.3 825.3 896 823.7C938.7 822 981.3 826 1024 827.3C1066.7 828.7 1109.3 827.3 1152 833.3C1194.7 839.3 1237.3 852.7 1280 864C1322.7 875.3 1365.3 884.7 1408 876.3C1450.7 868 1493.3 842 1536 843.5C1578.7 845 1621.3 874 1664 878.2C1706.7 882.3 1749.3 861.7 1792 852.2C1834.7 842.7 1877.3 844.3 1898.7 845.2L1920 846L1920 1081L1898.7 1081C1877.3 1081 1834.7 1081 1792 1081C1749.3 1081 1706.7 1081 1664 1081C1621.3 1081 1578.7 1081 1536 1081C1493.3 1081 1450.7 1081 1408 1081C1365.3 1081 1322.7 1081 1280 1081C1237.3 1081 1194.7 1081 1152 1081C1109.3 1081 1066.7 1081 1024 1081C981.3 1081 938.7 1081 896 1081C853.3 1081 810.7 1081 768 1081C725.3 1081 682.7 1081 640 1081C597.3 1081 554.7 1081 512 1081C469.3 1081 426.7 1081 384 1081C341.3 1081 298.7 1081 256 1081C213.3 1081 170.7 1081 128 1081C85.3 1081 42.7 1081 21.3 1081L0 1081Z" fill="#cecfb0"></path><path d="M0 937L21.3 939.5C42.7 942 85.3 947 128 932.8C170.7 918.7 213.3 885.3 256 878.2C298.7 871 341.3 890 384 901.8C426.7 913.7 469.3 918.3 512 912.7C554.7 907 597.3 891 640 880C682.7 869 725.3 863 768 858.7C810.7 854.3 853.3 851.7 896 860.8C938.7 870 981.3 891 1024 900.3C1066.7 909.7 1109.3 907.3 1152 899.2C1194.7 891 1237.3 877 1280 883.2C1322.7 889.3 1365.3 915.7 1408 924C1450.7 932.3 1493.3 922.7 1536 912C1578.7 901.3 1621.3 889.7 1664 892.8C1706.7 896 1749.3 914 1792 910.2C1834.7 906.3 1877.3 880.7 1898.7 867.8L1920 855L1920 1081L1898.7 1081C1877.3 1081 1834.7 1081 1792 1081C1749.3 1081 1706.7 1081 1664 1081C1621.3 1081 1578.7 1081 1536 1081C1493.3 1081 1450.7 1081 1408 1081C1365.3 1081 1322.7 1081 1280 1081C1237.3 1081 1194.7 1081 1152 1081C1109.3 1081 1066.7 1081 1024 1081C981.3 1081 938.7 1081 896 1081C853.3 1081 810.7 1081 768 1081C725.3 1081 682.7 1081 640 1081C597.3 1081 554.7 1081 512 1081C469.3 1081 426.7 1081 384 1081C341.3 1081 298.7 1081 256 1081C213.3 1081 170.7 1081 128 1081C85.3 1081 42.7 1081 21.3 1081L0 1081Z" fill="#d6d5bc"></path><path d="M0 910L21.3 915.7C42.7 921.3 85.3 932.7 128 940.5C170.7 948.3 213.3 952.7 256 960C298.7 967.3 341.3 977.7 384 983.2C426.7 988.7 469.3 989.3 512 977C554.7 964.7 597.3 939.3 640 936.2C682.7 933 725.3 952 768 953C810.7 954 853.3 937 896 930.3C938.7 923.7 981.3 927.3 1024 934.3C1066.7 941.3 1109.3 951.7 1152 959.5C1194.7 967.3 1237.3 972.7 1280 976.3C1322.7 980 1365.3 982 1408 971C1450.7 960 1493.3 936 1536 928.7C1578.7 921.3 1621.3 930.7 1664 930.3C1706.7 930 1749.3 920 1792 921.3C1834.7 922.7 1877.3 935.3 1898.7 941.7L1920 948L1920 1081L1898.7 1081C1877.3 1081 1834.7 1081 1792 1081C1749.3 1081 1706.7 1081 1664 1081C1621.3 1081 1578.7 1081 1536 1081C1493.3 1081 1450.7 1081 1408 1081C1365.3 1081 1322.7 1081 1280 1081C1237.3 1081 1194.7 1081 1152 1081C1109.3 1081 1066.7 1081 1024 1081C981.3 1081 938.7 1081 896 1081C853.3 1081 810.7 1081 768 1081C725.3 1081 682.7 1081 640 1081C597.3 1081 554.7 1081 512 1081C469.3 1081 426.7 1081 384 1081C341.3 1081 298.7 1081 256 1081C213.3 1081 170.7 1081 128 1081C85.3 1081 42.7 1081 21.3 1081L0 1081Z" fill="#dddbc8"></path><path d="M0 980L21.3 979.2C42.7 978.3 85.3 976.7 128 977.7C170.7 978.7 213.3 982.3 256 989.7C298.7 997 341.3 1008 384 1016C426.7 1024 469.3 1029 512 1023.2C554.7 1017.3 597.3 1000.7 640 991.2C682.7 981.7 725.3 979.3 768 983.3C810.7 987.3 853.3 997.7 896 1003.8C938.7 1010 981.3 1012 1024 1008.5C1066.7 1005 1109.3 996 1152 996.3C1194.7 996.7 1237.3 1006.3 1280 1008.5C1322.7 1010.7 1365.3 1005.3 1408 1000.8C1450.7 996.3 1493.3 992.7 1536 994.5C1578.7 996.3 1621.3 1003.7 1664 1003.5C1706.7 1003.3 1749.3 995.7 1792 990.7C1834.7 985.7 1877.3 983.3 1898.7 982.2L1920 981L1920 1081L1898.7 1081C1877.3 1081 1834.7 1081 1792 1081C1749.3 1081 1706.7 1081 1664 1081C1621.3 1081 1578.7 1081 1536 1081C1493.3 1081 1450.7 1081 1408 1081C1365.3 1081 1322.7 1081 1280 1081C1237.3 1081 1194.7 1081 1152 1081C1109.3 1081 1066.7 1081 1024 1081C981.3 1081 938.7 1081 896 1081C853.3 1081 810.7 1081 768 1081C725.3 1081 682.7 1081 640 1081C597.3 1081 554.7 1081 512 1081C469.3 1081 426.7 1081 384 1081C341.3 1081 298.7 1081 256 1081C213.3 1081 170.7 1081 128 1081C85.3 1081 42.7 1081 21.3 1081L0 1081Z" fill="#e3e1d5"></path></svg>
